<?xml version="1.0" encoding="utf-8"?>
<!-- Generator: Adobe Illustrator 16.0.3, SVG Export Plug-In . SVG Version: 6.00 Build 0)  -->
<!DOCTYPE svg PUBLIC "-//W3C//DTD SVG 1.1//EN" "http://www.w3.org/Graphics/SVG/1.1/DTD/svg11.dtd">
<svg version="1.1" id="Ebene_1" xmlns="http://www.w3.org/2000/svg" xmlns:xlink="http://www.w3.org/1999/xlink" x="0px" y="0px"
	 width="225.167px" height="147.333px" viewBox="0 0 225.167 147.333" enable-background="new 0 0 225.167 147.333"
	 xml:space="preserve">
<g>
	<path fill-rule="evenodd" clip-rule="evenodd" fill="#84CC16" d="M102.876,78.873c-4.614-3.904-9.227-7.81-13.844-11.71
		c-1.013-0.856-2.105-1.691-1.555-3.259c0.404-1.15-0.455-1.474-1.147-1.902c-1.982-1.228-4.016-2.377-5.959-3.663
		c-2.719-1.8-3.474-4.02-2.311-6.4c1.175-2.405,3.679-3.208,6.729-1.962c9.751,3.985,19.456,8.09,29.709,10.674
		c0.524,0.132,0.518,0.006,0.938-0.88c0.266-0.846-0.095-1.378-0.653-1.937c-8.295-8.313-21.653-11.947-32.848-17.027
		c-2.875-1.305-3.311-2.275-4.255-4.703c-0.486-1.25,0.336-3.936,1.945-4.619c3.005-1.278,5.042-0.903,7.585,0.186
		c9.77,4.184,19.567,8.304,29.357,12.441c0.918,0.388,1.854,0.734,3.134,1.238c-0.567-1.342-1.51-1.768-2.286-2.325
		c-6.82-4.899-13.658-9.773-20.478-14.673c-1.98-1.423-4.481-3.072-3.655-5.687c0.899-2.842,4.075-2.923,6.674-3.005
		c2.649-0.083,5.096,1.014,7.551,1.896c2.457,0.882,4.897,1.807,7.351,2.699c1.255,0.456,2.286,1.071,3.685-0.298
		c1.275-1.248,6.874,2.341,6.613,4.142c-0.267,1.838-1.64,1.66-3.022,1.355c-5.195-1.146-10.262-2.739-15.335-4.315
		c-1.764-0.548-3.55-0.905-5.292-0.089c0.1,1.096,0.808,1.292,1.333,1.622c13.346,8.402,26.229,17.501,39.373,26.207
		c2.266,1.501,3.705,3.653,5.029,5.908c0.891,1.515,0.189,2.532-1.344,2.95c-2.462,0.671-4.902,0.912-7.373-0.216
		c-3.197-1.459-6.477-2.738-9.969-3.632c2.837,1.631,5.685,3.242,8.506,4.897c3.332,1.956,4.334,3.853,3.484,6.46
		c-0.889,2.724-3.513,4.001-7.076,3.521c-7.49-1.009-14.909-2.344-22.129-4.644c-0.316-0.101-0.676-0.063-1.641-0.138
		c1.661,1.102,2.826,1.841,3.954,2.63c1.507,1.054,2.607,2.416,2.865,4.296c0.208,1.517-0.408,2.736-1.585,3.661
		c-1.113,0.874-1.926-0.114-2.766-0.569c-1.959-1.062-3.872-2.207-5.903-3.377c-0.406,1.09,0.338,1.501,0.809,1.958
		c2.545,2.467,5.12,4.903,7.685,7.35c0.605,0.576,1.375,1.108,0.744,2.103c-0.496,0.779-1.249,0.7-1.999,0.492
		c-2.155-0.599-4.376-1.033-6.445-1.851c-5.893-2.327-11.726-4.809-17.576-7.245c-0.425-0.177-0.824-0.442-1.192-0.723
		c-0.593-0.451-1.37-0.972-1.048-1.79c0.372-0.945,1.305-0.957,2.161-0.629c1.828,0.7,3.633,1.459,5.461,2.16
		c2.588,0.992,5.188,1.954,7.782,2.929C102.723,79.21,102.8,79.042,102.876,78.873z"/>
</g>
<g>
	<path fill="#F5F5F5" d="M27.68,125.192c0,0,0-0.828,0-2.484c0-0.456,0.036-0.9,0.108-1.332c0.048-0.528,0.072-0.9,0.072-1.116
		v-0.18v-0.396c-0.072-0.48-0.229-0.72-0.468-0.72c-0.432,0-1.23,0.414-2.394,1.242c-1.164,0.828-2.382,1.818-3.654,2.97
		c-0.384,0.409-0.708,0.792-0.972,1.152c-0.24,0.312-0.42,0.504-0.54,0.576c-0.12,0.072-0.312,0.108-0.576,0.108
		c-0.336-0.047-0.72-0.3-1.152-0.756c-0.432-0.456-0.72-0.864-0.864-1.224c0-0.671,0.12-1.314,0.36-1.926
		c0.24-0.612,0.6-1.386,1.08-2.322c0.216-0.72,0.492-1.44,0.828-2.16c0.36-0.84,0.618-1.482,0.774-1.926
		c0.156-0.444,0.257-0.905,0.306-1.386c0-0.024-0.012-0.036-0.036-0.036c0-0.096,0.036-0.18,0.108-0.252
		c0.072-0.072,0.156-0.108,0.252-0.108c0.048-0.072,0.192-0.108,0.432-0.108c0.624,0,1.164,0.168,1.62,0.504
		c0.456,0.336,0.684,0.852,0.684,1.548c0,0.36-0.066,0.702-0.198,1.026c-0.132,0.324-0.378,0.858-0.738,1.602l-0.396,0.792
		c-0.072,0.144-0.18,0.354-0.324,0.63s-0.216,0.45-0.216,0.522c0.6-0.408,1.308-0.948,2.124-1.62c1.2-0.959,2.184-1.704,2.952-2.232
		s1.332-0.792,1.692-0.792c0.312,0,0.75,0.174,1.314,0.522c0.564,0.348,0.894,0.666,0.99,0.954c0,0.168-0.018,0.42-0.054,0.756
		c-0.036,0.336-0.066,0.636-0.09,0.9l0.036,1.116c0.023,0.192,0.036,0.48,0.036,0.864c0,0.769-0.049,1.309-0.144,1.62
		c0.023,0.024,0.048,0.06,0.072,0.108c0.023,0.048,0.036,0.084,0.036,0.108l-0.036,0.072c0.023,0.24,0.156,0.624,0.396,1.152
		c0.24,0.528,0.36,0.816,0.36,0.864c0,0.265-0.174,0.558-0.522,0.882c-0.348,0.324-0.678,0.51-0.99,0.558
		C28.436,125.216,27.68,125.192,27.68,125.192z"/>
	<path fill="#F5F5F5" d="M35.131,132.59c-0.696-0.372-1.272-0.834-1.728-1.386c-0.457-0.553-0.684-1.057-0.684-1.512
		c0-0.456,0.096-0.786,0.288-0.99c0.191-0.205,0.432-0.306,0.72-0.306c0.216,0,0.444,0.09,0.684,0.27
		c0.24,0.18,0.516,0.438,0.828,0.774c0.312,0.312,0.587,0.558,0.828,0.738c0.24,0.18,0.468,0.27,0.684,0.27
		c0.816,0,1.44-0.516,1.872-1.548c0.432-1.032,0.876-2.497,1.332-4.392l0.504-2.16l0.072-0.252c0-0.023-0.013-0.03-0.036-0.018
		c-0.024,0.012-0.048,0.006-0.072-0.018c-0.384,0.288-1.14,0.612-2.268,0.972c-1.128,0.36-2.076,0.54-2.844,0.54
		c-0.456,0-0.858-0.239-1.206-0.72c-0.348-0.48-0.522-1.104-0.522-1.872v-0.216c0.048-0.096,0.324-0.816,0.828-2.16
		c0.504-1.344,0.876-1.992,1.116-1.944c0.072,0,0.186-0.138,0.342-0.414c0.156-0.276,0.234-0.462,0.234-0.558
		c0.023-0.072,0.162-0.21,0.414-0.414c0.252-0.204,0.45-0.366,0.594-0.486l0.936-0.72c0.864-0.792,1.632-1.386,2.304-1.782
		c0.672-0.396,1.284-0.618,1.836-0.666l0.36,0.036c0.072,0,0.21,0.006,0.414,0.018c0.204,0.013,0.57,0.114,1.098,0.306
		c0.528,0.216,1.067,0.744,1.62,1.584c0.552,0.84,0.852,1.572,0.9,2.196c-0.048,0.553-0.168,1.086-0.36,1.602
		c-0.192,0.517-0.384,0.774-0.576,0.774c-0.336,0-0.588,0.084-0.756,0.252c-0.168,0.168-0.324,0.445-0.468,0.828
		c-0.264,0.552-0.444,0.888-0.54,1.008l-0.576,2.772L42.8,125.3c-0.288,1.128-0.588,2.088-0.9,2.88
		c-0.12,0.864-0.438,1.674-0.954,2.43c-0.517,0.756-1.116,1.362-1.8,1.818s-1.326,0.696-1.926,0.72
		C36.523,133.148,35.827,132.962,35.131,132.59z M39.182,120.17c0.923-0.372,1.494-0.714,1.71-1.026
		c0.12-0.144,0.354-0.462,0.702-0.954c0.348-0.492,0.738-0.87,1.17-1.134c0.144-0.072,0.282-0.204,0.414-0.396
		c0.131-0.192,0.198-0.372,0.198-0.54v-0.072c-0.024-0.096-0.096-0.264-0.216-0.504c-0.121-0.24-0.294-0.468-0.522-0.684
		c-0.229-0.216-0.486-0.324-0.774-0.324c-0.24,0.048-0.798,0.48-1.674,1.296c-0.876,0.816-1.692,1.68-2.448,2.592
		c-0.756,0.913-1.134,1.548-1.134,1.908c0,0.264,0.168,0.396,0.504,0.396C37.567,120.728,38.257,120.542,39.182,120.17z"/>
	<path fill="#F5F5F5" d="M45.914,125.606c-0.3-0.444-0.462-0.822-0.486-1.134c0-0.24,1.26-1.668,3.78-4.284l1.152-1.368l-0.648-1.62
		c-0.216-0.576-0.432-1.206-0.648-1.89c-0.216-0.684-0.324-1.11-0.324-1.278c-0.048-0.144-0.072-0.264-0.072-0.36
		c0-0.24,0.048-0.492,0.144-0.756c0.096-0.264,0.18-0.444,0.252-0.54c-0.024-0.12,0.066-0.228,0.27-0.324
		c0.204-0.095,0.426-0.144,0.666-0.144c0.24,0,0.408,0.049,0.504,0.144c0.264,0.096,0.558,0.438,0.882,1.026
		c0.324,0.588,0.545,1.122,0.666,1.602c0,0.144,0.131,0.612,0.396,1.404l0.252,0.612l0.576-0.576
		c0.12-0.144,0.294-0.318,0.522-0.522c0.228-0.204,0.342-0.342,0.342-0.414c0.096,0,0.306-0.168,0.63-0.504
		c0.324-0.335,0.57-0.587,0.738-0.756c0.288-0.336,0.617-0.588,0.99-0.756c0.372-0.167,0.63-0.252,0.774-0.252
		c0.456-0.024,0.816,0.138,1.08,0.486c0.264,0.348,0.408,0.726,0.432,1.134c0,0.192-0.216,0.528-0.648,1.008
		c-0.432,0.48-1.044,1.008-1.836,1.584c-0.601,0.48-1.021,0.828-1.26,1.044l-1.26,1.008l0.324,0.684
		c0.312,0.697,0.582,1.23,0.81,1.602c0.228,0.373,0.545,0.774,0.954,1.206c0.216,0.216,0.438,0.486,0.666,0.81
		c0.228,0.324,0.378,0.534,0.45,0.63c0.096-0.023,0.198,0.036,0.306,0.18s0.149,0.3,0.126,0.468c0.048,0.192,0.072,0.313,0.072,0.36
		c0,0.24-0.079,0.426-0.234,0.558c-0.156,0.132-0.318,0.229-0.486,0.288c-0.168,0.06-0.276,0.114-0.324,0.162h-0.108
		c-0.096,0-0.216-0.03-0.36-0.09c-0.144-0.06-0.24-0.078-0.288-0.054c-0.12,0.048-0.39-0.072-0.81-0.36s-0.81-0.636-1.17-1.044
		c-0.216-0.216-0.468-0.552-0.756-1.008c-0.121-0.144-0.222-0.282-0.306-0.414c-0.084-0.131-0.162-0.234-0.234-0.306
		c-0.432-0.624-0.684-0.996-0.756-1.116c-0.072,0.072-0.432,0.456-1.08,1.152L50,123.5c-1.128,1.104-1.89,1.836-2.286,2.196
		c-0.396,0.36-0.678,0.54-0.846,0.54C46.531,126.26,46.213,126.05,45.914,125.606z"/>
	<path fill="#F5F5F5" d="M60.871,119.756c-0.6,0-1.032-0.24-1.296-0.72c-0.12-0.144-0.18-0.3-0.18-0.468
		c0-0.408,0.672-0.684,2.016-0.828c1.512-0.335,3.192-0.504,5.04-0.504c1.152,0,1.992,0.252,2.52,0.756
		c0.216,0.216,0.324,0.468,0.324,0.756c0,0.264-0.114,0.48-0.342,0.648c-0.228,0.168-0.51,0.229-0.846,0.18l-2.52,0.18
		c-0.121,0-0.54,0.03-1.26,0.09c-0.72,0.061-1.452,0.09-2.196,0.09C61.651,119.936,61.231,119.876,60.871,119.756z"/>
	<path fill="#F5F5F5" d="M72.606,125.246c-0.48-0.54-0.78-1.002-0.9-1.386c0-0.048-0.024-0.102-0.072-0.162
		c-0.048-0.06-0.084-0.102-0.108-0.126c-0.096-0.072-0.144-0.468-0.144-1.188c0-0.576,0.03-1.175,0.09-1.8
		c0.06-0.624,0.138-1.128,0.234-1.512l0.648-1.908l0.504-1.44l0.972-2.088l-1.44-0.396c-0.168-0.023-0.306-0.108-0.414-0.252
		s-0.162-0.275-0.162-0.396c0-0.192,0.102-0.468,0.306-0.828c0.204-0.36,0.366-0.54,0.486-0.54c0.072,0.024,0.264,0.036,0.576,0.036
		c0.72,0,1.26-0.036,1.62-0.108c0.239-0.096,0.408-0.288,0.504-0.576c0.12-0.264,0.24-0.486,0.36-0.666
		c0.12-0.18,0.24-0.378,0.36-0.594c0.072-0.144,0.186-0.366,0.342-0.666c0.156-0.3,0.354-0.642,0.594-1.026
		c0.048-0.072,0.156-0.246,0.324-0.522c0.167-0.276,0.372-0.51,0.612-0.702c0.144-0.12,0.336-0.222,0.576-0.306
		c0.24-0.083,0.48-0.126,0.72-0.126c0.432,0,0.779,0.121,1.044,0.36c0.216,0.336,0.324,0.588,0.324,0.756
		c0,0.192-0.096,0.444-0.288,0.756c-0.144,0.288-0.384,0.672-0.72,1.152c-0.288,0.432-0.504,0.78-0.648,1.044
		c-0.24,0.312-0.36,0.552-0.36,0.72c0,0.168,0.156,0.252,0.468,0.252c0.336,0,0.9-0.072,1.692-0.216
		c0.12-0.024,0.288-0.036,0.504-0.036c0.576,0,0.984,0.168,1.224,0.504c0.24,0.336,0.36,0.756,0.36,1.26
		c0,0.336-0.114,0.54-0.342,0.612c-0.229,0.072-0.738,0.108-1.53,0.108c-0.768,0.121-1.56,0.18-2.376,0.18
		c-0.144,0-0.306,0.006-0.486,0.018c-0.18,0.012-0.366,0.042-0.558,0.09c-0.192,0.048-0.33,0.121-0.414,0.216
		c-0.084,0.096-0.174,0.252-0.27,0.468c-0.072,0.072-0.24,0.348-0.504,0.828c-0.336,0.696-0.552,1.116-0.648,1.26
		c-0.625,1.824-1.104,3.708-1.44,5.652c-0.024,0.144-0.036,0.324-0.036,0.54c0,0.313,0.102,0.535,0.306,0.666
		c0.204,0.132,0.606,0.198,1.206,0.198c0.671,0,1.308-0.084,1.908-0.252c0.72-0.312,1.26-0.576,1.62-0.792
		c0.216-0.12,0.414-0.234,0.594-0.342c0.18-0.108,0.306-0.186,0.378-0.234c0.096-0.192,0.258-0.167,0.486,0.072
		c0.228,0.24,0.402,0.516,0.522,0.828c0,0.432-0.084,0.823-0.252,1.17c-0.168,0.348-0.588,0.714-1.26,1.098
		c-0.769,0.48-1.561,0.828-2.376,1.044c-0.816,0.216-1.584,0.324-2.304,0.324c-0.408,0-0.78-0.036-1.116-0.108
		C73.519,126.092,73.086,125.786,72.606,125.246z"/>
	<path fill="#F5F5F5" d="M93.451,125.912c-0.696,0-1.26-0.276-1.692-0.828c-0.432-0.552-0.648-1.355-0.648-2.412
		c0-1.056,0.204-2.196,0.612-3.42c0.072-0.167,0.167-0.372,0.288-0.612c0.12-0.24,0.144-0.36,0.072-0.36
		c-0.12,0-0.336,0.157-0.648,0.468c-1.176,1.056-2.154,2.154-2.934,3.294c-0.78,1.14-1.17,2.022-1.17,2.646
		c0,0.264-0.103,0.468-0.306,0.612c-0.204,0.144-0.438,0.216-0.702,0.216c-0.168,0-0.324-0.036-0.468-0.108
		c-0.528-0.312-0.96-0.75-1.296-1.314c-0.336-0.563-0.468-1.253-0.396-2.07c0.096-1.656,0.27-3.114,0.522-4.374
		c0.252-1.26,0.738-3.054,1.458-5.382c0.023-0.072,0.252-0.684,0.684-1.836c0.744-2.112,1.164-3.264,1.26-3.456
		c0.168-0.168,0.414-0.69,0.738-1.566c0.324-0.876,0.486-1.41,0.486-1.602c0-0.192,0.054-0.378,0.162-0.558
		c0.108-0.18,0.174-0.293,0.198-0.342c0.264-0.6,0.492-0.9,0.684-0.9c0.216,0,0.558,0.139,1.026,0.414
		c0.468,0.276,0.738,0.535,0.81,0.774c0.192,0.384,0.288,0.744,0.288,1.08c0,0.36-0.096,0.787-0.288,1.278
		c-0.192,0.492-0.516,1.17-0.972,2.034c-0.696,1.392-1.345,2.988-1.944,4.788c-0.288,0.769-0.636,1.86-1.044,3.276
		c-0.408,1.417-0.612,2.256-0.612,2.52c0,0.168,0.084,0.252,0.252,0.252c0.192,0,0.396-0.144,0.612-0.432
		c0.072-0.144,0.228-0.324,0.468-0.54c0.24-0.216,0.432-0.408,0.576-0.576c0.504-0.624,1.08-1.248,1.728-1.872
		c0.648-0.624,1.14-0.936,1.476-0.936c0.864,0,1.512,0.54,1.944,1.62c0.095,0.096,0.167,0.192,0.216,0.288
		c0.048,0.096,0.096,0.168,0.144,0.216c0.12,0.121,0.18,0.42,0.18,0.9c0,0.816-0.192,1.8-0.576,2.952
		c-0.265,1.056-0.396,1.776-0.396,2.16c0,0.312,0.083,0.468,0.252,0.468c0.072-0.048,0.216-0.131,0.432-0.252
		c0.216-0.12,0.468-0.264,0.756-0.432c0.528-0.312,0.948-0.468,1.26-0.468c0.24,0,0.42,0.066,0.54,0.198
		c0.12,0.132,0.18,0.294,0.18,0.486c0,0.168-0.078,0.42-0.234,0.756c-0.156,0.336-0.234,0.528-0.234,0.576v0.18
		c0,0.096-0.324,0.409-0.972,0.936c-0.648,0.528-1.116,0.828-1.404,0.9C94.291,125.792,93.834,125.912,93.451,125.912z"/>
	<path fill="#F5F5F5" d="M101.046,124.976c-0.84-0.768-1.26-1.86-1.26-3.276c0-0.552,0.036-1.164,0.108-1.836
		c0.048-0.576,0.282-1.368,0.702-2.376c0.419-1.008,0.996-1.992,1.728-2.952c0.731-0.96,1.589-1.668,2.574-2.124
		c0.456-0.216,0.84-0.366,1.152-0.45c0.312-0.084,0.671-0.126,1.08-0.126c0.984,0,1.782,0.18,2.394,0.54
		c0.612,0.36,1.044,0.769,1.296,1.224c0.252,0.456,0.378,0.852,0.378,1.188v0.18v0.108c0,0.288-0.168,0.816-0.504,1.584
		s-0.87,1.488-1.602,2.16c-0.732,0.672-1.674,1.044-2.826,1.116c-0.576,0-1.134-0.054-1.674-0.162
		c-0.54-0.108-0.882-0.162-1.026-0.162c-0.36,0-0.588,0.132-0.684,0.396c-0.096,0.265-0.144,0.708-0.144,1.332
		c0.072,0.672,0.257,1.14,0.558,1.404c0.3,0.264,0.738,0.396,1.314,0.396c0.288,0,0.624-0.084,1.008-0.252
		c0.383-0.191,0.84-0.491,1.368-0.9c0.288-0.239,0.516-0.408,0.684-0.504c0.168-0.096,0.372-0.144,0.612-0.144
		c0.216,0,0.468,0.144,0.756,0.432s0.444,0.564,0.468,0.828c-0.048,0.288-0.312,0.72-0.792,1.296s-1.104,1.092-1.872,1.548
		c-0.769,0.456-1.597,0.684-2.484,0.684C102.991,126.128,101.886,125.744,101.046,124.976z M106.555,117.308
		c0.24-0.12,0.605-0.426,1.098-0.918c0.492-0.492,0.75-0.834,0.774-1.026c0-0.239-0.103-0.438-0.306-0.594
		c-0.204-0.156-0.486-0.258-0.846-0.306h-0.396c-0.312,0-0.762,0.258-1.35,0.774c-0.588,0.517-1.098,1.11-1.53,1.782
		c0.023,0.12,0.204,0.222,0.54,0.306c0.336,0.084,0.696,0.126,1.08,0.126C106.074,117.452,106.386,117.404,106.555,117.308z"/>
	<path fill="#F5F5F5" d="M130.099,123.572c0,0,0,0.108,0,0.324c0,0.24-0.084,0.456-0.252,0.648
		c-0.168,0.192-0.313,0.288-0.432,0.288c-0.576,0-1.218-0.138-1.926-0.414c-0.708-0.276-1.062-0.678-1.062-1.206v-2.232
		c0-0.959-0.084-1.512-0.252-1.656c-0.36-0.191-0.84,0.079-1.44,0.81c-0.6,0.732-1.332,1.818-2.196,3.258
		c-0.336,0.528-0.625,0.906-0.864,1.134c-0.24,0.229-0.456,0.342-0.648,0.342c-0.168,0-0.312-0.048-0.432-0.144
		c-0.745-0.216-1.116-0.636-1.116-1.26c0-0.072,0.023-0.228,0.072-0.468c0.216-0.744,0.45-1.572,0.702-2.484
		c0.252-0.912,0.45-1.692,0.594-2.34c-0.072-0.144-0.192-0.216-0.36-0.216c-0.24,0-0.516,0.12-0.828,0.36
		c-0.096,0.072-0.27,0.186-0.522,0.342c-0.252,0.157-0.504,0.36-0.756,0.612s-0.51,0.594-0.774,1.026
		c-0.096,0.168-0.264,0.42-0.504,0.756c-1.2,1.824-1.932,2.856-2.196,3.096c-0.12,0.336-0.234,0.57-0.342,0.702
		s-0.234,0.198-0.378,0.198c-0.096,0-0.216-0.036-0.36-0.108c-0.457-0.216-0.823-0.522-1.098-0.918
		c-0.276-0.396-0.414-0.87-0.414-1.422c0-0.36,0.108-1.08,0.324-2.16c0.216-1.08,0.456-2.088,0.72-3.024
		c0.192-0.384,0.342-0.786,0.45-1.206c0.108-0.419,0.162-0.714,0.162-0.882c0.072-0.456,0.216-1.074,0.432-1.854
		c0.216-0.78,0.372-1.206,0.468-1.278c0.144-0.144,0.408-0.216,0.792-0.216c0.264,0,0.516,0.048,0.756,0.144
		c0.24,0.096,0.408,0.24,0.504,0.432c0.312,0.36,0.468,0.852,0.468,1.476c0,0.576-0.121,1.188-0.36,1.836
		c-0.24,0.552-0.54,1.356-0.9,2.412l0.072-0.072c0.576-0.816,1.319-1.728,2.232-2.736c0.432-0.48,0.918-0.852,1.458-1.116
		c0.54-0.264,0.978-0.396,1.314-0.396c0.576,0.096,1.062,0.378,1.458,0.846c0.396,0.468,0.642,1.11,0.738,1.926
		c0,0.288-0.024,0.643-0.072,1.062c-0.048,0.42-0.084,0.69-0.108,0.81c0.096-0.12,0.342-0.414,0.738-0.882
		c0.396-0.468,0.882-0.954,1.458-1.458c0.528-0.408,1.02-0.612,1.476-0.612c0.384,0,0.72,0.156,1.008,0.468
		c0.528,0.312,0.942,0.816,1.242,1.512c0.3,0.696,0.45,1.488,0.45,2.376c0,0.313-0.013,0.553-0.036,0.72
		c-0.024,0.168-0.036,0.408-0.036,0.72c0,0.336,0.036,0.654,0.108,0.954c0.072,0.3,0.144,0.57,0.216,0.81
		C130.014,123.452,130.099,123.572,130.099,123.572z"/>
	<path fill="#F5F5F5" d="M131.97,122.096c0-1.127,0.282-2.406,0.846-3.834c0.563-1.427,1.272-2.711,2.124-3.852
		c0.852-1.14,1.697-1.902,2.537-2.286c0.457-0.24,0.984-0.36,1.584-0.36c1.08,0,2.023,0.234,2.826,0.702
		c0.805,0.468,1.207,1.35,1.207,2.646c0,0.744-0.252,1.561-0.756,2.448c-0.504,0.888-1.135,1.638-1.891,2.25
		c-0.756,0.612-1.494,0.918-2.213,0.918c-1.08,0-1.994-0.348-2.736-1.044c-0.408,0.816-0.613,1.596-0.613,2.34
		c0,0.6,0.072,1.062,0.217,1.386c0.145,0.324,0.48,0.486,1.008,0.486c0.504,0,0.912-0.072,1.225-0.216
		c0.311-0.144,0.6-0.312,0.863-0.504c0.264-0.192,0.469-0.335,0.611-0.432l0.145-0.072h-0.035c0.432-0.24,0.75-0.426,0.953-0.558
		c0.203-0.131,0.379-0.222,0.521-0.27c0.361,0,0.697,0.108,1.01,0.324c0.311,0.216,0.467,0.48,0.467,0.792
		c0,0.24-0.215,0.63-0.648,1.17c-0.432,0.54-0.875,0.918-1.332,1.134l-0.432,0.216h0.037c-0.217,0.288-0.434,0.432-0.648,0.432
		h-0.289c-0.096,0.192-0.414,0.383-0.953,0.576c-0.541,0.192-1.051,0.288-1.529,0.288
		C133.338,126.776,131.97,125.216,131.97,122.096z M139.62,117.236c0.443-0.576,0.666-1.152,0.666-1.728
		c0-0.264-0.066-0.504-0.197-0.72c-0.133-0.216-0.307-0.324-0.523-0.324c-0.408,0-0.863,0.192-1.367,0.576
		c-0.504,0.384-0.947,0.888-1.332,1.512l-0.469,0.756c0.096-0.048,0.168-0.072,0.217-0.072c0.191,0,0.336,0.084,0.432,0.252
		c0.096,0.168,0.205,0.313,0.324,0.432c0.119,0.121,0.313,0.18,0.576,0.18C138.618,118.1,139.176,117.812,139.62,117.236z"/>
	<path fill="#F5F5F5" d="M147.198,126.668c0,0-0.306-0.121-0.918-0.36c-0.612-0.24-1.128-0.534-1.548-0.882
		c-0.42-0.348-0.63-0.666-0.63-0.954c0-0.288,0.132-0.468,0.396-0.54l0.181-0.144c0.048-0.024,0.144-0.036,0.287-0.036
		c0.096-0.023,0.217-0.018,0.36,0.018c0.145,0.036,0.264,0.054,0.36,0.054c0.167,0.048,0.419,0.096,0.756,0.144l0.936,0.108
		c0.48,0,0.931-0.048,1.351-0.144c0.419-0.096,0.63-0.204,0.63-0.324c0-0.072-0.097-0.192-0.288-0.36
		c-0.192-0.168-0.396-0.252-0.612-0.252c0-0.096-0.372-0.42-1.115-0.972c-0.409-0.312-0.799-0.624-1.171-0.936
		c-0.372-0.312-0.558-0.54-0.558-0.684l0.036-0.072v-0.18c-0.168,0-0.324-0.228-0.468-0.684c-0.145-0.456-0.217-0.9-0.217-1.332
		c0-0.815,0.36-1.715,1.08-2.7c0.721-0.984,1.614-1.872,2.683-2.664c1.067-0.792,2.082-1.332,3.042-1.62
		c0.359-0.167,0.888-0.252,1.584-0.252c0.455,0,0.768,0.048,0.936,0.144l0.288-0.072c0.288,0,0.66,0.24,1.116,0.72
		c0.456,0.48,0.743,0.864,0.864,1.152c0,0.792-0.024,1.428-0.072,1.908c-0.049,0.48-0.168,0.72-0.36,0.72
		c-0.023,0-0.06,0.012-0.107,0.036c-0.049,0.024-0.072,0.084-0.072,0.18c0,0.336-0.294,0.708-0.882,1.116
		c-0.589,0.409-1.122,0.612-1.603,0.612l-0.144-0.036c-0.145-0.023-0.354-0.167-0.63-0.432c-0.276-0.264-0.414-0.527-0.414-0.792
		c0-0.072,0.144-0.264,0.432-0.576s0.534-0.618,0.738-0.918c0.203-0.3,0.306-0.618,0.306-0.954c0-0.12-0.042-0.198-0.126-0.234
		c-0.084-0.036-0.246-0.054-0.485-0.054c-1.32,0.6-2.269,1.165-2.845,1.692c-0.071,0.144-0.138,0.252-0.197,0.324
		c-0.061,0.072-0.139,0.108-0.234,0.108c0-0.023-0.013-0.036-0.036-0.036c-0.048,0-0.204,0.139-0.468,0.414
		c-0.265,0.276-0.511,0.594-0.738,0.954c-0.229,0.36-0.366,0.696-0.414,1.008l-0.071,0.108v0.18
		c-0.024,0.048-0.036,0.144-0.036,0.288c0,0.216,0.096,0.438,0.288,0.666c0.191,0.229,0.575,0.546,1.151,0.954
		c1.08,0.816,1.818,1.422,2.214,1.818c0.396,0.396,0.643,0.75,0.738,1.062c0.216,0.432,0.324,0.816,0.324,1.152
		c0,0.816-0.427,1.446-1.278,1.89s-2.01,0.666-3.474,0.666C147.486,126.668,147.198,126.668,147.198,126.668z"/>
	<path fill="#F5F5F5" d="M158.322,119.756c-0.601,0-1.032-0.24-1.296-0.72c-0.121-0.144-0.181-0.3-0.181-0.468
		c0-0.408,0.672-0.684,2.017-0.828c1.512-0.335,3.191-0.504,5.04-0.504c1.151,0,1.991,0.252,2.52,0.756
		c0.216,0.216,0.324,0.468,0.324,0.756c0,0.264-0.114,0.48-0.342,0.648c-0.229,0.168-0.511,0.229-0.847,0.18l-2.52,0.18
		c-0.12,0-0.54,0.03-1.26,0.09c-0.721,0.061-1.453,0.09-2.196,0.09C159.101,119.936,158.681,119.876,158.322,119.756z"/>
	<path fill="#F5F5F5" d="M167.069,134.552c-0.24,0-0.42-0.108-0.54-0.324c-0.024-0.024-0.132-0.168-0.324-0.432
		c-0.192-0.264-0.288-0.648-0.288-1.152c0-0.096,0.023-0.288,0.072-0.576c0.264-1.008,0.396-1.704,0.396-2.088
		c0-0.121,0.023-0.294,0.071-0.522c0.048-0.229,0.084-0.438,0.108-0.63c0.096-0.168,0.186-0.427,0.27-0.774
		c0.084-0.348,0.126-0.654,0.126-0.918c0-0.12,0.042-0.258,0.126-0.414c0.084-0.157,0.186-0.283,0.307-0.378
		c0-0.144,0.036-0.365,0.107-0.666c0.072-0.3,0.12-0.509,0.145-0.63c0.119-0.648,0.588-2.184,1.403-4.608
		c0.816-2.424,1.513-4.379,2.089-5.868c0.287-0.671,0.527-1.296,0.72-1.872c0.191-0.576,0.288-0.983,0.288-1.224
		c0-0.096,0.029-0.186,0.09-0.27c0.06-0.084,0.162-0.198,0.306-0.342c0.192-0.192,0.444-0.288,0.756-0.288
		c0.408,0,0.805,0.132,1.188,0.396c0.168,0.264,0.288,0.492,0.36,0.684c0.071,0.192,0.107,0.409,0.107,0.648
		c0,0.072-0.024,0.301-0.072,0.684c0,0.504-0.144,0.96-0.432,1.368c-0.288,0.408-0.42,0.6-0.396,0.576
		c1.175-0.72,2.268-1.08,3.275-1.08c1.08,0,1.944,0.378,2.592,1.134c0.648,0.756,0.973,1.65,0.973,2.682
		c0,0.408-0.192,1.014-0.576,1.818c-0.385,0.805-0.696,1.314-0.937,1.53c-0.144,0-0.336,0.252-0.575,0.756
		c-0.288,0.384-0.835,0.786-1.639,1.206s-1.35,0.582-1.638,0.486c-0.024,0-0.061,0.03-0.108,0.09
		c-0.048,0.061-0.071,0.139-0.071,0.234c0,0.096-0.36,0.264-1.08,0.504c-0.721,0.24-1.345,0.36-1.872,0.36
		c-0.288,0-0.504-0.018-0.648-0.054c-0.144-0.036-0.288-0.114-0.432-0.234c-0.168,0.168-0.252,0.324-0.252,0.468
		c0,0.24-0.12,0.618-0.36,1.134c-0.24,0.516-0.432,0.774-0.576,0.774c-0.023,0.024-0.054,0.072-0.09,0.144
		c-0.036,0.072-0.006,0.156,0.09,0.252c0,0.072-0.012,0.24-0.035,0.504c-0.024,0.264-0.085,0.468-0.181,0.612
		c0,0.216-0.036,0.51-0.107,0.882c-0.072,0.372-0.157,0.654-0.252,0.846c0,0.288-0.043,0.57-0.126,0.846
		c-0.085,0.275-0.175,0.414-0.271,0.414c-0.144,0.048-0.216,0.396-0.216,1.044c-0.024,0.576-0.211,1.092-0.559,1.548
		c-0.348,0.456-0.678,0.684-0.989,0.684L167.069,134.552z M173.891,121.358c0.923-0.372,1.602-0.738,2.033-1.098
		c0.553-0.456,0.973-0.875,1.261-1.26c0.288-0.384,0.432-0.768,0.432-1.152c0-0.336-0.108-0.66-0.324-0.972
		c-0.168-0.264-0.42-0.396-0.756-0.396c-0.792,0-1.824,0.612-3.096,1.836c-0.433,0.456-0.816,1.026-1.152,1.71
		s-0.504,1.206-0.504,1.566c0,0.216,0.072,0.324,0.216,0.324C172.336,121.916,172.966,121.73,173.891,121.358z"/>
	<path fill="#F5F5F5" d="M182.495,124.598c-0.252-0.276-0.379-0.534-0.379-0.774c0-0.335,0.042-0.768,0.127-1.296
		c0.083-0.527,0.186-1.008,0.306-1.44c0.072-0.6,0.149-1.085,0.233-1.458c0.084-0.372,0.234-0.738,0.45-1.098
		c0.096-0.36,0.264-0.9,0.504-1.62c0.528-1.68,0.888-2.976,1.08-3.888c0.192-0.528,0.36-0.996,0.504-1.404
		c0.145-0.408,0.276-0.78,0.396-1.116c-0.049,0.144,0.252-0.671,0.899-2.448c0.192-0.576,0.324-1.02,0.396-1.332
		c0.264-1.08,0.563-1.896,0.9-2.448c0.167-0.24,0.293-0.444,0.378-0.612c0.083-0.168,0.162-0.3,0.233-0.396
		c0.023-0.096,0.149-0.18,0.378-0.252c0.229-0.072,0.462-0.108,0.702-0.108c0.264,0,0.444,0.049,0.54,0.144
		c0.12-0.048,0.33,0.15,0.63,0.594c0.3,0.444,0.438,0.762,0.414,0.954c0,0.312-0.084,0.6-0.252,0.864
		c-0.096,0.096-0.204,0.27-0.324,0.522s-0.228,0.462-0.323,0.63c-0.049,0.168-0.126,0.45-0.234,0.846s-0.21,0.726-0.306,0.99
		c-0.121,0.288-0.234,0.558-0.343,0.81c-0.107,0.252-0.197,0.475-0.27,0.666c-0.097,0.313-0.265,0.78-0.504,1.404
		c-0.337,0.816-0.564,1.452-0.685,1.908c-0.048,0.144-0.132,0.444-0.252,0.9c-0.336,1.2-0.66,2.076-0.972,2.628
		c-0.192,0.312-0.33,0.732-0.414,1.26c-0.084,0.528-0.139,0.852-0.162,0.972c-0.359,1.08-0.54,1.716-0.54,1.908
		c-0.048,0.216-0.132,0.636-0.252,1.26c-0.144,0.769-0.288,1.32-0.432,1.656c-0.049,0.36-0.187,0.708-0.414,1.044
		c-0.229,0.336-0.486,0.504-0.774,0.504c-0.12,0-0.252-0.036-0.396-0.108C183.028,125.096,182.747,124.874,182.495,124.598z"/>
	<path fill="#F5F5F5" d="M196.787,125.21c-0.133-0.348-0.294-0.882-0.486-1.602c-0.048-0.144-0.072-0.354-0.072-0.63
		s0-0.474,0-0.594c-0.096,0.216-0.216,0.45-0.359,0.702c-0.145,0.252-0.288,0.426-0.433,0.522c-0.552,0.552-1.104,0.96-1.655,1.224
		c-0.769,0.48-1.429,0.72-1.98,0.72c-0.672,0-1.248-0.312-1.728-0.936c-0.769-0.624-1.152-1.368-1.152-2.232
		c0-0.12,0.023-0.348,0.072-0.684c0.048-0.887,0.174-1.74,0.378-2.556c0.203-0.816,0.594-1.86,1.17-3.132l1.08-2.16l0.576-1.116
		c0.119-0.048,0.312-0.072,0.575-0.072c0.384,0,0.744,0.072,1.08,0.216s0.517,0.336,0.54,0.576c0.072,0.096,0.108,0.276,0.108,0.54
		c0,0.768-0.324,1.788-0.972,3.06l-0.288,0.684c-0.433,1.032-0.744,1.836-0.937,2.412c-0.192,0.576-0.288,1.057-0.288,1.44
		c0,0.384,0.145,0.636,0.433,0.756c0.119,0.072,0.264,0.108,0.432,0.108c0.479,0,1.063-0.372,1.746-1.116
		c0.684-0.744,1.386-1.992,2.105-3.744c0.336-0.815,0.54-1.656,0.612-2.52c-0.048-0.264,0.023-0.552,0.216-0.864
		c0.192-0.312,0.444-0.563,0.756-0.756c0.096-0.144,0.229-0.258,0.396-0.342c0.168-0.083,0.275-0.078,0.324,0.018l0.576-0.036
		c0.071-0.023,0.186,0.084,0.342,0.324c0.155,0.24,0.27,0.384,0.342,0.432c0.239,0.192,0.36,0.576,0.36,1.152
		c0,0.792-0.288,1.884-0.864,3.276c-0.456,0.96-0.763,1.698-0.918,2.214c-0.156,0.516-0.246,1.014-0.271,1.494
		c0,0.504,0.042,0.895,0.126,1.17c0.084,0.276,0.294,0.558,0.631,0.846c0.383,0.264,0.54,0.888,0.468,1.872
		c-0.049,0.168-0.181,0.3-0.396,0.396c-0.216,0.096-0.48,0.144-0.792,0.144c-0.528,0-0.972-0.121-1.332-0.36
		C197.092,125.84,196.918,125.558,196.787,125.21z"/>
	<path fill="#F5F5F5" d="M202.888,125.156c-0.169-0.335-0.253-0.696-0.253-1.08c0-0.288,0.048-0.528,0.145-0.72
		c0.096-0.192,0.228-0.288,0.396-0.288c0.12,0,0.24,0.06,0.36,0.18c0.312,0.192,0.756,0.288,1.332,0.288
		c0.239,0,0.768-0.024,1.584-0.072c0.36-0.023,0.642-0.114,0.846-0.27c0.204-0.156,0.307-0.33,0.307-0.522
		c0-0.192-0.072-0.336-0.216-0.432h0.035c-1.008-0.239-1.943-0.653-2.808-1.242c-0.864-0.588-1.345-1.146-1.44-1.674
		c-0.071-0.335-0.107-0.648-0.107-0.936c0-0.648,0.138-1.296,0.414-1.944c0.275-0.648,0.642-1.236,1.098-1.764
		c0.12-0.072,0.39-0.257,0.811-0.558c0.419-0.3,0.726-0.474,0.918-0.522v0.036c0.432-0.456,0.918-0.833,1.458-1.134
		c0.54-0.3,1.241-0.594,2.105-0.882l0.576-0.072l0.756-0.072c0.023,0.024,0.09,0.054,0.198,0.09c0.107,0.036,0.222,0.066,0.342,0.09
		c0.145,0.072,0.288,0.108,0.432,0.108c0.505,0.096,0.979,0.438,1.423,1.026c0.443,0.588,0.642,1.134,0.594,1.638
		c-0.072,0.576-0.282,1.128-0.63,1.656c-0.349,0.528-0.702,0.828-1.063,0.9c0.048-0.023-0.018-0.084-0.198-0.18
		c-0.18-0.095-0.294-0.156-0.342-0.18l-0.144,0.072c0-0.023-0.007-0.066-0.019-0.126c-0.012-0.06-0.042-0.138-0.09-0.234
		c-0.168-0.312-0.24-0.708-0.216-1.188l0.072-0.36c0-0.072-0.042-0.126-0.126-0.162c-0.085-0.036-0.198-0.054-0.342-0.054
		c-0.072-0.023-0.192-0.036-0.36-0.036c-0.337,0-0.702,0.072-1.098,0.216c-0.396,0.144-0.751,0.336-1.063,0.576
		c-0.696,0.48-1.146,0.822-1.35,1.026c-0.204,0.204-0.414,0.558-0.63,1.062c-0.24,0.36-0.36,0.636-0.36,0.828
		c0,0.24,0.186,0.48,0.558,0.72c0.372,0.24,1.002,0.54,1.891,0.9c0.504,0.216,0.863,0.486,1.08,0.81
		c0.216,0.324,0.383,0.636,0.504,0.936c0.119,0.3,0.203,0.51,0.252,0.63c0.048,0.144,0.096,0.336,0.144,0.576
		c0.048,0.24,0.06,0.373,0.036,0.396l0.072,0.144v-0.036c0.071,0.144,0.107,0.288,0.107,0.432c0,0.48-0.312,0.972-0.936,1.476
		s-1.368,0.84-2.232,1.008h0.036c-0.647,0.096-1.332,0.144-2.052,0.144C204.423,126.38,203.488,125.972,202.888,125.156z"/>
</g>
</svg>
